<?xml version="1.0" encoding="utf-8"?>
<svg xmlns="http://www.w3.org/2000/svg" xmlns:xlink="http://www.w3.org/1999/xlink" width="600" height="400" viewBox="0 0 2400 1600">
<defs>
  <clipPath id="clip560">
    <rect x="0" y="0" width="2400" height="1600"/>
  </clipPath>
</defs>
<path clip-path="url(#clip560)" d="M0 1600 L2400 1600 L2400 0 L0 0  Z" fill="#ffffff" fill-rule="evenodd" fill-opacity="1"/>
<defs>
  <clipPath id="clip561">
    <rect x="480" y="0" width="1681" height="1600"/>
  </clipPath>
</defs>
<path clip-path="url(#clip560)" d="M35.8002 1486.45 L2321.26 1486.45 L2321.26 47.2441 L35.8002 47.2441  Z" fill="#ffffff" fill-rule="evenodd" fill-opacity="1"/>
<defs>
  <clipPath id="clip562">
    <rect x="35" y="47" width="2286" height="1440"/>
  </clipPath>
</defs>
<path clip-path="url(#clip562)" d="M594.833 234.966 L1663.57 234.966 L1663.57 985.855 L594.833 985.855 L594.833 234.966  Z" fill="#f1a340" fill-rule="evenodd" fill-opacity="0.4"/>
<polyline clip-path="url(#clip562)" style="stroke:#f1a340; stroke-linecap:round; stroke-linejoin:round; stroke-width:8; stroke-opacity:1; fill:none" points="594.833,234.966 1663.57,234.966 1663.57,985.855 594.833,985.855 594.833,234.966 "/>
<path clip-path="url(#clip562)" d="M1499.15 234.966 L1581.36 234.966 L1581.36 985.855 L1499.15 985.855 L1499.15 234.966  Z" fill="#f1a340" fill-rule="evenodd" fill-opacity="0.3"/>
<polyline clip-path="url(#clip562)" style="stroke:#f1a340; stroke-linecap:round; stroke-linejoin:round; stroke-width:4; stroke-opacity:1; fill:none" points="1499.15,234.966 1581.36,234.966 1581.36,985.855 1499.15,985.855 1499.15,234.966 "/>
<path clip-path="url(#clip562)" d="M594.833 422.689 L1663.57 422.689 L1663.57 485.263 L594.833 485.263 L594.833 422.689  Z" fill="#f1a340" fill-rule="evenodd" fill-opacity="0.3"/>
<polyline clip-path="url(#clip562)" style="stroke:#f1a340; stroke-linecap:round; stroke-linejoin:round; stroke-width:4; stroke-opacity:1; fill:none" points="594.833,422.689 1663.57,422.689 1663.57,485.263 594.833,485.263 594.833,422.689 "/>
<path clip-path="url(#clip562)" d="M1745.78 234.966 L2239.05 234.966 L2239.05 985.855 L1745.78 985.855 L1745.78 234.966  Z" fill="#67a9cf" fill-rule="evenodd" fill-opacity="0.4"/>
<polyline clip-path="url(#clip562)" style="stroke:#67a9cf; stroke-linecap:round; stroke-linejoin:round; stroke-width:8; stroke-opacity:1; fill:none" points="1745.78,234.966 2239.05,234.966 2239.05,985.855 1745.78,985.855 1745.78,234.966 "/>
<path clip-path="url(#clip562)" d="M2074.63 234.966 L2156.84 234.966 L2156.84 985.855 L2074.63 985.855 L2074.63 234.966  Z" fill="#67a9cf" fill-rule="evenodd" fill-opacity="0.3"/>
<polyline clip-path="url(#clip562)" style="stroke:#67a9cf; stroke-linecap:round; stroke-linejoin:round; stroke-width:4; stroke-opacity:1; fill:none" points="2074.63,234.966 2156.84,234.966 2156.84,985.855 2074.63,985.855 2074.63,234.966 "/>
<path clip-path="url(#clip562)" d="M1745.78 422.689 L2239.05 422.689 L2239.05 485.263 L1745.78 485.263 L1745.78 422.689  Z" fill="#67a9cf" fill-rule="evenodd" fill-opacity="0.3"/>
<polyline clip-path="url(#clip562)" style="stroke:#67a9cf; stroke-linecap:round; stroke-linejoin:round; stroke-width:4; stroke-opacity:1; fill:none" points="1745.78,422.689 2239.05,422.689 2239.05,485.263 1745.78,485.263 1745.78,422.689 "/>
<path clip-path="url(#clip562)" d="M594.833 1048.43 L1663.57 1048.43 L1663.57 1486.45 L594.833 1486.45 L594.833 1048.43  Z" fill="#67a9cf" fill-rule="evenodd" fill-opacity="0.4"/>
<polyline clip-path="url(#clip562)" style="stroke:#67a9cf; stroke-linecap:round; stroke-linejoin:round; stroke-width:8; stroke-opacity:1; fill:none" points="594.833,1048.43 1663.57,1048.43 1663.57,1486.45 594.833,1486.45 594.833,1048.43 "/>
<path clip-path="url(#clip562)" d="M1499.15 1048.43 L1581.36 1048.43 L1581.36 1486.45 L1499.15 1486.45 L1499.15 1048.43  Z" fill="#67a9cf" fill-rule="evenodd" fill-opacity="0.3"/>
<polyline clip-path="url(#clip562)" style="stroke:#67a9cf; stroke-linecap:round; stroke-linejoin:round; stroke-width:4; stroke-opacity:1; fill:none" points="1499.15,1048.43 1581.36,1048.43 1581.36,1486.45 1499.15,1486.45 1499.15,1048.43 "/>
<path clip-path="url(#clip562)" d="M594.833 1173.58 L1663.57 1173.58 L1663.57 1236.15 L594.833 1236.15 L594.833 1173.58  Z" fill="#67a9cf" fill-rule="evenodd" fill-opacity="0.3"/>
<polyline clip-path="url(#clip562)" style="stroke:#67a9cf; stroke-linecap:round; stroke-linejoin:round; stroke-width:4; stroke-opacity:1; fill:none" points="594.833,1173.58 1663.57,1173.58 1663.57,1236.15 594.833,1236.15 594.833,1173.58 "/>
<polyline clip-path="url(#clip562)" style="stroke:#808080; stroke-linecap:round; stroke-linejoin:round; stroke-width:4; stroke-opacity:1; fill:none" points="496.181,453.976 578.391,453.976 "/>
<polyline clip-path="url(#clip562)" style="stroke:#808080; stroke-linecap:round; stroke-linejoin:round; stroke-width:4; stroke-opacity:1; fill:none" points="542.391,435.976 578.391,453.976 542.391,471.976 "/>
<polyline clip-path="url(#clip562)" style="stroke:#808080; stroke-linecap:round; stroke-linejoin:round; stroke-width:4; stroke-opacity:1; fill:none" points="578.391,453.976 496.181,453.976 "/>
<polyline clip-path="url(#clip562)" style="stroke:#808080; stroke-linecap:round; stroke-linejoin:round; stroke-width:4; stroke-opacity:1; fill:none" points="496.181,1204.86 578.391,1204.86 "/>
<polyline clip-path="url(#clip562)" style="stroke:#808080; stroke-linecap:round; stroke-linejoin:round; stroke-width:4; stroke-opacity:1; fill:none" points="542.391,1186.86 578.391,1204.86 542.391,1222.86 "/>
<polyline clip-path="url(#clip562)" style="stroke:#808080; stroke-linecap:round; stroke-linejoin:round; stroke-width:4; stroke-opacity:1; fill:none" points="578.391,1204.86 496.181,1204.86 "/>
<polyline clip-path="url(#clip562)" style="stroke:#808080; stroke-linecap:round; stroke-linejoin:round; stroke-width:4; stroke-opacity:1; fill:none" points="1540.26,159.877 1540.26,222.452 "/>
<polyline clip-path="url(#clip562)" style="stroke:#808080; stroke-linecap:round; stroke-linejoin:round; stroke-width:4; stroke-opacity:1; fill:none" points="1558.26,186.452 1540.26,222.452 1522.26,186.452 "/>
<polyline clip-path="url(#clip562)" style="stroke:#808080; stroke-linecap:round; stroke-linejoin:round; stroke-width:4; stroke-opacity:1; fill:none" points="1540.26,222.452 1540.26,159.877 "/>
<polyline clip-path="url(#clip562)" style="stroke:#808080; stroke-linecap:round; stroke-linejoin:round; stroke-width:4; stroke-opacity:1; fill:none" points="2115.73,159.877 2115.73,222.452 "/>
<polyline clip-path="url(#clip562)" style="stroke:#808080; stroke-linecap:round; stroke-linejoin:round; stroke-width:4; stroke-opacity:1; fill:none" points="2133.73,186.452 2115.73,222.452 2097.73,186.452 "/>
<polyline clip-path="url(#clip562)" style="stroke:#808080; stroke-linecap:round; stroke-linejoin:round; stroke-width:4; stroke-opacity:1; fill:none" points="2115.73,222.452 2115.73,159.877 "/>
<g clip-path="url(#clip560)">
<text style="fill:#000000; fill-opacity:1; font-family:Century Schoolbook,Georgia,serif; font-size:96px; font-weight:bold; text-anchor:middle;" transform="rotate(0, 1046.99, 770.059)" x="1046.99" y="770.059">Y</text>
</g>
<g clip-path="url(#clip560)">
<text style="fill:#000000; fill-opacity:1; font-family:Century Schoolbook,Georgia,serif; font-size:96px; font-weight:bold; text-anchor:middle;" transform="rotate(0, 1910.21, 770.059)" x="1910.21" y="770.059">X</text>
</g>
<g clip-path="url(#clip560)">
<text style="fill:#000000; fill-opacity:1; font-family:Century Schoolbook,Georgia,serif; font-size:96px; font-weight:bold; text-anchor:middle;" transform="rotate(0, 1046.99, 1395.8)" x="1046.99" y="1395.8">Z</text>
</g>
<g clip-path="url(#clip560)">
<text style="fill:#000000; fill-opacity:1; font-family:Century Schoolbook,Georgia,serif; font-size:54px; font-style:italic; font-weight:bold; text-anchor:middle;" transform="rotate(0, 1092.21, 1346.38)" x="1092.21" y="1346.38">T</text>
</g>
<g clip-path="url(#clip560)">
<text style="fill:#000000; fill-opacity:1; font-family:Century Schoolbook,Georgia,serif; font-size:54px; font-style:italic; font-weight:bold; text-anchor:middle;" transform="rotate(0, 1955.42, 1346.38)" x="1955.42" y="1346.38">T</text>
</g>
<g clip-path="url(#clip560)">
<text style="fill:#808080; fill-opacity:1; font-family:Century Schoolbook,Georgia,serif; font-size:60px; font-style:italic; text-anchor:start;" transform="rotate(0, 1496.49, 74.9655)" x="1496.49" y="74.9655">TG</text>
</g>
<g clip-path="url(#clip560)">
<text style="fill:#808080; fill-opacity:1; font-family:Century Schoolbook,Georgia,serif; font-size:60px; font-style:italic; text-anchor:start;" transform="rotate(0, 1315.76, 137.612)" x="1315.76" y="137.612">(12:0_12:0_18:2)</text>
</g>
<g clip-path="url(#clip560)">
<text style="fill:#808080; fill-opacity:1; font-family:Century Schoolbook,Georgia,serif; font-size:60px; font-style:italic; text-anchor:end;" transform="rotate(0, 479.738, 475.476)" x="479.738" y="475.476">sample 7</text>
</g>
<g clip-path="url(#clip560)">
<text style="fill:#808080; fill-opacity:1; font-family:Century Schoolbook,Georgia,serif; font-size:60px; font-style:italic; text-anchor:middle;" transform="rotate(0, 2115.73, 143.833)" x="2115.73" y="143.833">Fish Oil</text>
</g>
<g clip-path="url(#clip560)">
<text style="fill:#808080; fill-opacity:1; font-family:Century Schoolbook,Georgia,serif; font-size:60px; font-style:italic; text-anchor:end;" transform="rotate(0, 479.738, 1226.36)" x="479.738" y="1226.36">Double Bonds = 2</text>
</g>
<g clip-path="url(#clip560)">
<text style="fill:#000000; fill-opacity:1; font-family:Century Schoolbook,Georgia,serif; font-size:72px; font-style:italic; text-anchor:middle;" transform="rotate(0, 2304.82, 636.411)" x="2304.82" y="636.411">n</text>
</g>
<g clip-path="url(#clip560)">
<text style="fill:#000000; fill-opacity:1; font-family:Century Schoolbook,Georgia,serif; font-size:72px; font-style:italic; text-anchor:middle;" transform="rotate(0, 2304.82, 1293.44)" x="2304.82" y="1293.44">q</text>
</g>
<g clip-path="url(#clip560)">
<text style="fill:#000000; fill-opacity:1; font-family:Century Schoolbook,Georgia,serif; font-size:72px; font-style:italic; text-anchor:middle;" transform="rotate(0, 1129.2, 1562.51)" x="1129.2" y="1562.51">m</text>
</g>
</svg>
